<svg xmlns="http://www.w3.org/2000/svg" xmlns:xlink="http://www.w3.org/1999/xlink" width="500" zoomAndPan="magnify" viewBox="0 0 375 374.999991" height="500" preserveAspectRatio="xMidYMid meet" version="1.0"><defs><g/><clipPath id="8137ad6368"><path d="M 315 176 L 341 176 L 341 201 L 315 201 Z M 315 176 " clip-rule="nonzero"/></clipPath><clipPath id="41c2ff36aa"><path d="M 318.585938 174.832031 L 343.328125 181.007812 L 338.058594 202.109375 L 313.320312 195.933594 Z M 318.585938 174.832031 " clip-rule="nonzero"/></clipPath><clipPath id="61d4ccfe9e"><path d="M 318.585938 174.832031 L 343.328125 181.007812 L 338.058594 202.109375 L 313.320312 195.933594 Z M 318.585938 174.832031 " clip-rule="nonzero"/></clipPath><clipPath id="057226b0eb"><path d="M 318.585938 174.832031 L 343.328125 181.007812 L 338.058594 202.109375 L 313.320312 195.933594 Z M 318.585938 174.832031 " clip-rule="nonzero"/></clipPath><clipPath id="981fad9418"><path d="M 297 159 L 326 159 L 326 188 L 297 188 Z M 297 159 " clip-rule="nonzero"/></clipPath><clipPath id="867e07933b"><path d="M 300.871094 157.84375 L 328.523438 164.742188 L 322.527344 188.757812 L 294.875 181.855469 Z M 300.871094 157.84375 " clip-rule="nonzero"/></clipPath><clipPath id="3f37574d62"><path d="M 300.871094 157.84375 L 328.523438 164.742188 L 322.527344 188.757812 L 294.875 181.855469 Z M 300.871094 157.84375 " clip-rule="nonzero"/></clipPath><clipPath id="0d73ebe842"><path d="M 300.871094 157.84375 L 328.523438 164.742188 L 322.527344 188.757812 L 294.875 181.855469 Z M 300.871094 157.84375 " clip-rule="nonzero"/></clipPath><clipPath id="cd6ac12ea4"><path d="M 321 157 L 345 157 L 345 180 L 321 180 Z M 321 157 " clip-rule="nonzero"/></clipPath><clipPath id="c0564d55c5"><path d="M 324.023438 156.140625 L 346.582031 161.769531 L 341.859375 180.691406 L 319.300781 175.058594 Z M 324.023438 156.140625 " clip-rule="nonzero"/></clipPath><clipPath id="6ae84ee024"><path d="M 324.023438 156.140625 L 346.582031 161.769531 L 341.859375 180.691406 L 319.300781 175.058594 Z M 324.023438 156.140625 " clip-rule="nonzero"/></clipPath><clipPath id="5b9dd56cfb"><path d="M 324.023438 156.140625 L 346.582031 161.769531 L 341.859375 180.691406 L 319.300781 175.058594 Z M 324.023438 156.140625 " clip-rule="nonzero"/></clipPath><clipPath id="cb45daddb6"><path d="M 299 161 L 324 161 L 324 186 L 299 186 Z M 299 161 " clip-rule="nonzero"/></clipPath><clipPath id="5029a7cf8f"><path d="M 302.421875 160.207031 L 326.433594 166.199219 L 321.347656 186.574219 L 297.335938 180.582031 Z M 302.421875 160.207031 " clip-rule="nonzero"/></clipPath><clipPath id="6662947e75"><path d="M 302.421875 160.207031 L 326.433594 166.199219 L 321.347656 186.574219 L 297.335938 180.582031 Z M 302.421875 160.207031 " clip-rule="nonzero"/></clipPath><clipPath id="7bd2dd4204"><path d="M 302.421875 160.207031 L 326.433594 166.199219 L 321.347656 186.574219 L 297.335938 180.582031 Z M 302.421875 160.207031 " clip-rule="nonzero"/></clipPath><clipPath id="e29c1ab58f"><path d="M 323 159 L 343 159 L 343 178 L 323 178 Z M 323 159 " clip-rule="nonzero"/></clipPath><clipPath id="efc94f738e"><path d="M 325.4375 158.148438 L 344.355469 162.871094 L 340.359375 178.878906 L 321.441406 174.15625 Z M 325.4375 158.148438 " clip-rule="nonzero"/></clipPath><clipPath id="0abff3862f"><path d="M 325.4375 158.148438 L 344.355469 162.871094 L 340.359375 178.878906 L 321.441406 174.15625 Z M 325.4375 158.148438 " clip-rule="nonzero"/></clipPath><clipPath id="57bbbc16ac"><path d="M 325.4375 158.148438 L 344.355469 162.871094 L 340.359375 178.878906 L 321.441406 174.15625 Z M 325.4375 158.148438 " clip-rule="nonzero"/></clipPath><clipPath id="093da41a2d"><path d="M 317 178 L 339 178 L 339 200 L 317 200 Z M 317 178 " clip-rule="nonzero"/></clipPath><clipPath id="28909554a2"><path d="M 320.152344 177.0625 L 340.527344 182.148438 L 335.988281 200.339844 L 315.613281 195.253906 Z M 320.152344 177.0625 " clip-rule="nonzero"/></clipPath><clipPath id="34d355d965"><path d="M 320.152344 177.0625 L 340.527344 182.148438 L 335.988281 200.339844 L 315.613281 195.253906 Z M 320.152344 177.0625 " clip-rule="nonzero"/></clipPath><clipPath id="a65076907c"><path d="M 320.152344 177.0625 L 340.527344 182.148438 L 335.988281 200.339844 L 315.613281 195.253906 Z M 320.152344 177.0625 " clip-rule="nonzero"/></clipPath><clipPath id="07ba073f92"><path d="M 195 230 L 199 230 L 199 235 L 195 235 Z M 195 230 " clip-rule="nonzero"/></clipPath><clipPath id="6f82da218c"><path d="M 28.761719 124.261719 L 176.808594 100.132812 L 198.644531 234.113281 L 50.597656 258.246094 Z M 28.761719 124.261719 " clip-rule="nonzero"/></clipPath><clipPath id="dbc00b4ccb"><path d="M 176.808594 100.132812 L 28.761719 124.261719 L 50.597656 258.246094 L 198.644531 234.113281 Z M 176.808594 100.132812 " clip-rule="nonzero"/></clipPath><clipPath id="19986a420d"><path d="M 37 154 L 196 154 L 196 229 L 37 229 Z M 37 154 " clip-rule="nonzero"/></clipPath><clipPath id="bffe66c4a0"><path d="M 28.761719 124.261719 L 176.808594 100.132812 L 198.644531 234.113281 L 50.597656 258.246094 Z M 28.761719 124.261719 " clip-rule="nonzero"/></clipPath><clipPath id="b206bc090d"><path d="M 176.808594 100.132812 L 28.761719 124.261719 L 50.597656 258.246094 L 198.644531 234.113281 Z M 176.808594 100.132812 " clip-rule="nonzero"/></clipPath><clipPath id="a03ca9e0dc"><path d="M 48 149 L 53 149 L 53 154 L 48 154 Z M 48 149 " clip-rule="nonzero"/></clipPath><clipPath id="20032b8e1c"><path d="M 28.761719 124.261719 L 176.808594 100.132812 L 198.644531 234.113281 L 50.597656 258.246094 Z M 28.761719 124.261719 " clip-rule="nonzero"/></clipPath><clipPath id="9e888dc382"><path d="M 176.808594 100.132812 L 28.761719 124.261719 L 50.597656 258.246094 L 198.644531 234.113281 Z M 176.808594 100.132812 " clip-rule="nonzero"/></clipPath><clipPath id="ac8e06b38c"><path d="M 45 120 L 84 120 L 84 157 L 45 157 Z M 45 120 " clip-rule="nonzero"/></clipPath><clipPath id="b01075e73c"><path d="M 28.761719 124.261719 L 176.808594 100.132812 L 198.644531 234.113281 L 50.597656 258.246094 Z M 28.761719 124.261719 " clip-rule="nonzero"/></clipPath><clipPath id="0f5cb2036f"><path d="M 176.808594 100.132812 L 28.761719 124.261719 L 50.597656 258.246094 L 198.644531 234.113281 Z M 176.808594 100.132812 " clip-rule="nonzero"/></clipPath></defs><rect x="-37.5" width="450" fill="#ffffff" y="-37.499999" height="449.999989" fill-opacity="1"/><rect x="-37.5" width="450" fill="#183055" y="-37.499999" height="449.999989" fill-opacity="1"/><g clip-path="url(#8137ad6368)"><g clip-path="url(#41c2ff36aa)"><g clip-path="url(#61d4ccfe9e)"><g clip-path="url(#057226b0eb)"><path fill="#ffda40" d="M 331.875 200.5625 L 319.503906 197.472656 L 315.953125 185.382812 L 324.769531 176.378906 L 337.140625 179.464844 L 340.691406 191.558594 Z M 320.195312 196.769531 L 331.597656 199.613281 L 339.722656 191.316406 L 336.449219 180.171875 L 325.046875 177.328125 L 316.921875 185.625 Z M 320.195312 196.769531 " fill-opacity="1" fill-rule="nonzero"/></g></g></g></g><g clip-path="url(#981fad9418)"><g clip-path="url(#867e07933b)"><g clip-path="url(#3f37574d62)"><g clip-path="url(#0d73ebe842)"><path fill="#ffda40" d="M 315.617188 187.03125 L 301.789062 183.578125 L 297.875 169.847656 L 307.78125 159.570312 L 321.609375 163.019531 L 325.523438 176.75 Z M 302.566406 182.773438 L 315.308594 185.953125 L 324.441406 176.480469 L 320.832031 163.828125 L 308.089844 160.648438 L 298.957031 170.121094 Z M 302.566406 182.773438 " fill-opacity="1" fill-rule="nonzero"/></g></g></g></g><g clip-path="url(#cd6ac12ea4)"><g clip-path="url(#c0564d55c5)"><g clip-path="url(#6ae84ee024)"><g clip-path="url(#5b9dd56cfb)"><path fill="#ffda40" d="M 336.222656 179.277344 L 324.941406 176.464844 L 321.664062 165.601562 L 329.664062 157.550781 L 340.941406 160.367188 L 344.21875 171.230469 Z M 325.570312 175.832031 L 335.964844 178.425781 L 343.335938 171.011719 L 340.3125 160.996094 L 329.917969 158.402344 L 322.546875 165.820312 Z M 325.570312 175.832031 " fill-opacity="1" fill-rule="nonzero"/></g></g></g></g><g clip-path="url(#cb45daddb6)"><g clip-path="url(#5029a7cf8f)"><g clip-path="url(#6662947e75)"><g clip-path="url(#7bd2dd4204)"><path fill="#ffda40" d="M 315.34375 185.078125 L 303.339844 182.078125 L 299.878906 170.394531 L 308.425781 161.703125 L 320.429688 164.703125 L 323.890625 176.386719 Z M 304.007812 181.398438 L 315.074219 184.160156 L 322.949219 176.152344 L 319.761719 165.382812 L 308.695312 162.621094 L 300.820312 170.628906 Z M 304.007812 181.398438 " fill-opacity="1" fill-rule="nonzero"/></g></g></g></g><g clip-path="url(#e29c1ab58f)"><g clip-path="url(#efc94f738e)"><g clip-path="url(#0abff3862f)"><g clip-path="url(#57bbbc16ac)"><path fill="#ffda40" d="M 335.628906 177.695312 L 326.171875 175.335938 L 323.4375 166.152344 L 330.164062 159.332031 L 339.625 161.691406 L 342.355469 170.875 Z M 326.699219 174.800781 L 335.414062 176.976562 L 341.617188 170.691406 L 339.097656 162.226562 L 330.378906 160.050781 L 324.179688 166.339844 Z M 326.699219 174.800781 " fill-opacity="1" fill-rule="nonzero"/></g></g></g></g><g clip-path="url(#093da41a2d)"><g clip-path="url(#28909554a2)"><g clip-path="url(#34d355d965)"><g clip-path="url(#a65076907c)"><path fill="#ffda40" d="M 330.890625 199.066406 L 320.707031 196.527344 L 317.886719 186.160156 L 325.246094 178.332031 L 335.433594 180.875 L 338.253906 191.242188 Z M 321.285156 195.914062 L 330.671875 198.253906 L 337.457031 191.042969 L 334.855469 181.488281 L 325.46875 179.144531 L 318.683594 186.359375 Z M 321.285156 195.914062 " fill-opacity="1" fill-rule="nonzero"/></g></g></g></g><g fill="#ffffff" fill-opacity="1"><g transform="translate(47.952159, 216.104062)"><g><path d="M 6.296875 0.59375 C 5.097656 0.59375 4.132812 0.320312 3.40625 -0.21875 C 2.6875 -0.769531 2.25 -1.507812 2.09375 -2.4375 C 1.945312 -3.363281 2.125 -4.398438 2.625 -5.546875 L 22.421875 -49.421875 C 23.078125 -50.867188 23.863281 -51.90625 24.78125 -52.53125 C 25.707031 -53.15625 26.769531 -53.46875 27.96875 -53.46875 C 29.125 -53.46875 30.160156 -53.15625 31.078125 -52.53125 C 32.003906 -51.90625 32.796875 -50.867188 33.453125 -49.421875 L 53.328125 -5.546875 C 53.878906 -4.398438 54.078125 -3.347656 53.921875 -2.390625 C 53.773438 -1.441406 53.347656 -0.707031 52.640625 -0.1875 C 51.941406 0.332031 51.019531 0.59375 49.875 0.59375 C 48.476562 0.59375 47.390625 0.257812 46.609375 -0.40625 C 45.835938 -1.082031 45.148438 -2.125 44.546875 -3.53125 L 39.671875 -14.84375 L 43.71875 -12.21875 L 12.078125 -12.21875 L 16.125 -14.84375 L 11.328125 -3.53125 C 10.671875 -2.070312 9.992188 -1.019531 9.296875 -0.375 C 8.597656 0.269531 7.597656 0.59375 6.296875 0.59375 Z M 27.828125 -42.453125 L 17.328125 -17.46875 L 15.375 -19.875 L 40.421875 -19.875 L 38.546875 -17.46875 L 27.96875 -42.453125 Z M 27.828125 -42.453125 "/></g></g></g><g fill="#ffffff" fill-opacity="1"><g transform="translate(103.752105, 216.104062)"><g><path d="M 9.671875 0.59375 C 8.117188 0.59375 6.929688 0.179688 6.109375 -0.640625 C 5.285156 -1.460938 4.875 -2.648438 4.875 -4.203125 L 4.875 -32.546875 C 4.875 -34.097656 5.273438 -35.273438 6.078125 -36.078125 C 6.878906 -36.878906 8.003906 -37.28125 9.453125 -37.28125 C 10.898438 -37.28125 12.023438 -36.878906 12.828125 -36.078125 C 13.628906 -35.273438 14.03125 -34.097656 14.03125 -32.546875 L 14.03125 -27.828125 L 13.28125 -27.828125 C 13.976562 -30.828125 15.347656 -33.097656 17.390625 -34.640625 C 19.441406 -36.191406 22.171875 -37.117188 25.578125 -37.421875 C 26.628906 -37.523438 27.46875 -37.265625 28.09375 -36.640625 C 28.71875 -36.015625 29.078125 -35.050781 29.171875 -33.75 C 29.273438 -32.5 28.988281 -31.484375 28.3125 -30.703125 C 27.632812 -29.929688 26.625 -29.472656 25.28125 -29.328125 L 23.625 -29.171875 C 20.570312 -28.867188 18.269531 -27.929688 16.71875 -26.359375 C 15.175781 -24.785156 14.40625 -22.570312 14.40625 -19.71875 L 14.40625 -4.203125 C 14.40625 -2.648438 14.003906 -1.460938 13.203125 -0.640625 C 12.398438 0.179688 11.222656 0.59375 9.671875 0.59375 Z M 9.671875 0.59375 "/></g></g></g><g fill="#ffffff" fill-opacity="1"><g transform="translate(133.152078, 216.104062)"><g><path d="M 21.828125 0.75 C 17.972656 0.75 14.617188 -0.0351562 11.765625 -1.609375 C 8.921875 -3.179688 6.722656 -5.414062 5.171875 -8.3125 C 3.617188 -11.21875 2.84375 -14.625 2.84375 -18.53125 C 2.84375 -21.476562 3.28125 -24.113281 4.15625 -26.4375 C 5.03125 -28.757812 6.289062 -30.734375 7.9375 -32.359375 C 9.59375 -33.984375 11.59375 -35.234375 13.9375 -36.109375 C 16.289062 -36.984375 18.921875 -37.421875 21.828125 -37.421875 C 23.472656 -37.421875 25.257812 -37.195312 27.1875 -36.75 C 29.113281 -36.300781 30.925781 -35.550781 32.625 -34.5 C 33.425781 -34 33.953125 -33.398438 34.203125 -32.703125 C 34.453125 -32.003906 34.5 -31.289062 34.34375 -30.5625 C 34.195312 -29.832031 33.882812 -29.207031 33.40625 -28.6875 C 32.9375 -28.164062 32.347656 -27.84375 31.640625 -27.71875 C 30.941406 -27.59375 30.171875 -27.753906 29.328125 -28.203125 C 28.222656 -28.847656 27.09375 -29.332031 25.9375 -29.65625 C 24.789062 -29.988281 23.695312 -30.15625 22.65625 -30.15625 C 21 -30.15625 19.546875 -29.890625 18.296875 -29.359375 C 17.046875 -28.835938 15.984375 -28.085938 15.109375 -27.109375 C 14.234375 -26.140625 13.570312 -24.925781 13.125 -23.46875 C 12.675781 -22.019531 12.453125 -20.347656 12.453125 -18.453125 C 12.453125 -14.753906 13.335938 -11.84375 15.109375 -9.71875 C 16.890625 -7.59375 19.40625 -6.53125 22.65625 -6.53125 C 23.695312 -6.53125 24.78125 -6.675781 25.90625 -6.96875 C 27.03125 -7.269531 28.171875 -7.75 29.328125 -8.40625 C 30.171875 -8.851562 30.929688 -9 31.609375 -8.84375 C 32.285156 -8.695312 32.847656 -8.359375 33.296875 -7.828125 C 33.742188 -7.304688 34.019531 -6.679688 34.125 -5.953125 C 34.226562 -5.234375 34.140625 -4.523438 33.859375 -3.828125 C 33.585938 -3.128906 33.078125 -2.550781 32.328125 -2.09375 C 30.671875 -1.09375 28.914062 -0.367188 27.0625 0.078125 C 25.21875 0.523438 23.472656 0.75 21.828125 0.75 Z M 21.828125 0.75 "/></g></g></g><g fill="#facc16" fill-opacity="1"><g transform="translate(168.561526, 216.104062)"><g><path d="M 10.578125 0.59375 C 9.023438 0.59375 7.835938 0.15625 7.015625 -0.71875 C 6.191406 -1.59375 5.78125 -2.800781 5.78125 -4.34375 L 5.78125 -48.53125 C 5.78125 -50.125 6.191406 -51.34375 7.015625 -52.1875 C 7.835938 -53.039062 9.023438 -53.46875 10.578125 -53.46875 C 12.128906 -53.46875 13.316406 -53.039062 14.140625 -52.1875 C 14.960938 -51.34375 15.375 -50.125 15.375 -48.53125 L 15.375 -30.828125 L 42.59375 -30.828125 L 42.59375 -48.53125 C 42.59375 -50.125 43.003906 -51.34375 43.828125 -52.1875 C 44.660156 -53.039062 45.851562 -53.46875 47.40625 -53.46875 C 48.945312 -53.46875 50.128906 -53.039062 50.953125 -52.1875 C 51.785156 -51.34375 52.203125 -50.125 52.203125 -48.53125 L 52.203125 -4.34375 C 52.203125 -2.800781 51.785156 -1.59375 50.953125 -0.71875 C 50.128906 0.15625 48.945312 0.59375 47.40625 0.59375 C 45.851562 0.59375 44.660156 0.15625 43.828125 -0.71875 C 43.003906 -1.59375 42.59375 -2.800781 42.59375 -4.34375 L 42.59375 -22.796875 L 15.375 -22.796875 L 15.375 -4.34375 C 15.375 -2.800781 14.972656 -1.59375 14.171875 -0.71875 C 13.367188 0.15625 12.171875 0.59375 10.578125 0.59375 Z M 10.578125 0.59375 "/></g></g></g><g fill="#facc16" fill-opacity="1"><g transform="translate(226.536468, 216.104062)"><g><path d="M 9.53125 0.53125 C 8.03125 0.53125 6.878906 0.0820312 6.078125 -0.8125 C 5.273438 -1.71875 4.875 -2.972656 4.875 -4.578125 L 4.875 -32.09375 C 4.875 -33.75 5.273438 -35.015625 6.078125 -35.890625 C 6.878906 -36.765625 8.03125 -37.203125 9.53125 -37.203125 C 11.03125 -37.203125 12.191406 -36.765625 13.015625 -35.890625 C 13.835938 -35.015625 14.25 -33.75 14.25 -32.09375 L 14.25 -4.578125 C 14.25 -2.972656 13.847656 -1.71875 13.046875 -0.8125 C 12.242188 0.0820312 11.070312 0.53125 9.53125 0.53125 Z M 9.53125 -44.171875 C 7.78125 -44.171875 6.414062 -44.609375 5.4375 -45.484375 C 4.457031 -46.359375 3.96875 -47.570312 3.96875 -49.125 C 3.96875 -50.726562 4.457031 -51.953125 5.4375 -52.796875 C 6.414062 -53.648438 7.78125 -54.078125 9.53125 -54.078125 C 11.320312 -54.078125 12.691406 -53.648438 13.640625 -52.796875 C 14.597656 -51.953125 15.078125 -50.726562 15.078125 -49.125 C 15.078125 -47.570312 14.597656 -46.359375 13.640625 -45.484375 C 12.691406 -44.609375 11.320312 -44.171875 9.53125 -44.171875 Z M 9.53125 -44.171875 "/></g></g></g><g fill="#facc16" fill-opacity="1"><g transform="translate(245.661443, 216.104062)"><g><path d="M 19.71875 0.59375 C 18.46875 0.59375 17.378906 0.269531 16.453125 -0.375 C 15.535156 -1.019531 14.773438 -2.019531 14.171875 -3.375 L 2.25 -31.046875 C 1.800781 -32.148438 1.640625 -33.175781 1.765625 -34.125 C 1.890625 -35.070312 2.335938 -35.832031 3.109375 -36.40625 C 3.890625 -36.988281 4.953125 -37.28125 6.296875 -37.28125 C 7.453125 -37.28125 8.378906 -37.015625 9.078125 -36.484375 C 9.773438 -35.960938 10.398438 -34.976562 10.953125 -33.53125 L 21.078125 -8.25 L 18.828125 -8.25 L 29.25 -33.59375 C 29.800781 -35 30.4375 -35.960938 31.15625 -36.484375 C 31.882812 -37.015625 32.875 -37.28125 34.125 -37.28125 C 35.226562 -37.28125 36.101562 -36.988281 36.75 -36.40625 C 37.394531 -35.832031 37.789062 -35.082031 37.9375 -34.15625 C 38.09375 -33.238281 37.921875 -32.226562 37.421875 -31.125 L 25.28125 -3.375 C 24.726562 -2.019531 23.988281 -1.019531 23.0625 -0.375 C 22.132812 0.269531 21.019531 0.59375 19.71875 0.59375 Z M 19.71875 0.59375 "/></g></g></g><g fill="#facc16" fill-opacity="1"><g transform="translate(285.186404, 216.104062)"><g><path d="M 22.953125 0.75 C 18.796875 0.75 15.21875 -0.0234375 12.21875 -1.578125 C 9.21875 -3.128906 6.90625 -5.328125 5.28125 -8.171875 C 3.65625 -11.023438 2.84375 -14.398438 2.84375 -18.296875 C 2.84375 -22.097656 3.628906 -25.421875 5.203125 -28.265625 C 6.785156 -31.117188 8.960938 -33.359375 11.734375 -34.984375 C 14.515625 -36.609375 17.675781 -37.421875 21.21875 -37.421875 C 23.820312 -37.421875 26.160156 -36.992188 28.234375 -36.140625 C 30.304688 -35.296875 32.082031 -34.070312 33.5625 -32.46875 C 35.039062 -30.875 36.164062 -28.9375 36.9375 -26.65625 C 37.707031 -24.382812 38.09375 -21.820312 38.09375 -18.96875 C 38.09375 -18.070312 37.78125 -17.382812 37.15625 -16.90625 C 36.53125 -16.4375 35.644531 -16.203125 34.5 -16.203125 L 10.421875 -16.203125 L 10.421875 -21.59375 L 31.5 -21.59375 L 30.296875 -20.46875 C 30.296875 -22.769531 29.957031 -24.695312 29.28125 -26.25 C 28.613281 -27.800781 27.640625 -28.988281 26.359375 -29.8125 C 25.085938 -30.632812 23.5 -31.046875 21.59375 -31.046875 C 19.5 -31.046875 17.710938 -30.554688 16.234375 -29.578125 C 14.765625 -28.609375 13.640625 -27.234375 12.859375 -25.453125 C 12.085938 -23.679688 11.703125 -21.570312 11.703125 -19.125 L 11.703125 -18.59375 C 11.703125 -14.5 12.660156 -11.4375 14.578125 -9.40625 C 16.503906 -7.382812 19.34375 -6.375 23.09375 -6.375 C 24.394531 -6.375 25.859375 -6.535156 27.484375 -6.859375 C 29.109375 -7.179688 30.644531 -7.742188 32.09375 -8.546875 C 33.144531 -9.148438 34.070312 -9.410156 34.875 -9.328125 C 35.675781 -9.253906 36.3125 -8.96875 36.78125 -8.46875 C 37.257812 -7.96875 37.546875 -7.351562 37.640625 -6.625 C 37.742188 -5.90625 37.609375 -5.171875 37.234375 -4.421875 C 36.859375 -3.671875 36.222656 -3.019531 35.328125 -2.46875 C 33.578125 -1.375 31.5625 -0.5625 29.28125 -0.03125 C 27.007812 0.488281 24.898438 0.75 22.953125 0.75 Z M 22.953125 0.75 "/></g></g></g><g clip-path="url(#07ba073f92)"><g clip-path="url(#6f82da218c)"><g clip-path="url(#dbc00b4ccb)"><path fill="#facc16" d="M 197.417969 234.429688 C 197.5 234.414062 197.582031 234.390625 197.667969 234.355469 C 198.246094 234.117188 198.527344 233.453125 198.289062 232.871094 C 198.289062 232.871094 197.96875 232.089844 197.265625 230.738281 C 196.984375 230.183594 196.308594 229.949219 195.730469 230.253906 C 195.175781 230.542969 194.957031 231.230469 195.246094 231.789062 C 195.871094 233 196.167969 233.710938 196.183594 233.738281 C 196.386719 234.238281 196.902344 234.511719 197.417969 234.429688 Z M 197.417969 234.429688 " fill-opacity="1" fill-rule="nonzero"/></g></g></g><g clip-path="url(#19986a420d)"><g clip-path="url(#bffe66c4a0)"><g clip-path="url(#b206bc090d)"><path fill="#facc16" d="M 194.125 228.367188 C 194.273438 228.34375 194.417969 228.289062 194.550781 228.207031 C 195.082031 227.867188 195.242188 227.164062 194.902344 226.632812 C 194.148438 225.441406 193.261719 224.125 192.226562 222.71875 C 191.847656 222.203125 191.144531 222.105469 190.628906 222.476562 C 190.125 222.855469 190.019531 223.566406 190.390625 224.074219 C 191.390625 225.429688 192.253906 226.703125 192.980469 227.851562 C 193.230469 228.25 193.691406 228.4375 194.125 228.367188 Z M 188.597656 220.867188 C 188.792969 220.835938 188.988281 220.75 189.148438 220.613281 C 189.628906 220.207031 189.6875 219.484375 189.28125 219.007812 C 188.308594 217.863281 187.25 216.6875 186.097656 215.496094 C 185.652344 215.042969 184.933594 215.039062 184.484375 215.472656 C 184.03125 215.914062 184.023438 216.636719 184.460938 217.085938 C 185.582031 218.234375 186.605469 219.375 187.542969 220.480469 C 187.8125 220.796875 188.214844 220.929688 188.597656 220.867188 Z M 182.113281 214.179688 C 182.359375 214.140625 182.59375 214.019531 182.773438 213.820312 C 183.195312 213.351562 183.15625 212.632812 182.691406 212.210938 C 181.558594 211.1875 180.355469 210.164062 179.078125 209.152344 C 178.582031 208.757812 177.863281 208.847656 177.480469 209.339844 C 177.085938 209.832031 177.171875 210.546875 177.664062 210.9375 C 178.902344 211.921875 180.0625 212.910156 181.164062 213.902344 C 181.433594 214.140625 181.78125 214.234375 182.113281 214.179688 Z M 174.8125 208.398438 C 175.109375 208.347656 175.382812 208.1875 175.566406 207.921875 C 175.925781 207.40625 175.800781 206.695312 175.28125 206.335938 C 174.019531 205.460938 172.699219 204.601562 171.304688 203.765625 C 170.761719 203.441406 170.066406 203.617188 169.738281 204.160156 C 169.417969 204.699219 169.59375 205.398438 170.132812 205.722656 C 171.476562 206.527344 172.757812 207.359375 173.980469 208.207031 C 174.234375 208.382812 174.53125 208.441406 174.8125 208.398438 Z M 166.839844 203.59375 C 167.183594 203.535156 167.496094 203.324219 167.667969 202.992188 C 167.960938 202.433594 167.738281 201.746094 167.183594 201.457031 C 165.816406 200.746094 164.398438 200.0625 162.921875 199.40625 C 162.347656 199.152344 161.671875 199.410156 161.417969 199.988281 C 161.160156 200.5625 161.421875 201.238281 161.996094 201.492188 C 163.425781 202.128906 164.808594 202.792969 166.132812 203.476562 C 166.359375 203.597656 166.609375 203.628906 166.839844 203.589844 Z M 158.335938 199.8125 C 158.726562 199.75 159.074219 199.484375 159.21875 199.085938 C 159.4375 198.5 159.144531 197.84375 158.550781 197.621094 C 157.109375 197.082031 155.625 196.570312 154.085938 196.09375 C 153.472656 195.921875 152.84375 196.253906 152.660156 196.847656 C 152.476562 197.449219 152.808594 198.089844 153.414062 198.273438 C 154.90625 198.734375 156.351562 199.230469 157.753906 199.753906 C 157.945312 199.828125 158.148438 199.84375 158.335938 199.8125 Z M 149.445312 197.058594 C 149.878906 196.984375 150.25 196.664062 150.367188 196.210938 C 150.519531 195.597656 150.148438 194.980469 149.535156 194.828125 C 148.046875 194.453125 146.511719 194.113281 144.941406 193.804688 C 144.296875 193.683594 143.71875 194.089844 143.601562 194.707031 C 143.484375 195.324219 143.886719 195.921875 144.503906 196.042969 C 146.035156 196.339844 147.53125 196.675781 148.984375 197.039062 C 149.140625 197.078125 149.292969 197.082031 149.445312 197.058594 Z M 140.3125 195.28125 C 140.792969 195.203125 141.1875 194.824219 141.257812 194.320312 C 141.351562 193.695312 140.914062 193.117188 140.289062 193.027344 C 138.769531 192.8125 137.210938 192.628906 135.617188 192.476562 C 134.960938 192.410156 134.433594 192.878906 134.371094 193.503906 C 134.316406 194.128906 134.773438 194.6875 135.402344 194.746094 C 136.957031 194.894531 138.480469 195.074219 139.972656 195.285156 C 140.085938 195.304688 140.203125 195.300781 140.3125 195.28125 Z M 131.046875 194.40625 C 131.566406 194.320312 131.976562 193.886719 132 193.335938 C 132.035156 192.710938 131.550781 192.175781 130.921875 192.140625 C 129.386719 192.066406 127.820312 192.023438 126.222656 192.011719 C 125.554688 192.011719 125.078125 192.515625 125.078125 193.144531 C 125.070312 193.773438 125.578125 194.289062 126.207031 194.292969 C 127.769531 194.304688 129.304688 194.34375 130.804688 194.421875 C 130.886719 194.421875 130.972656 194.417969 131.046875 194.40625 Z M 121.742188 194.34375 C 122.300781 194.25 122.714844 193.757812 122.695312 193.179688 C 122.675781 192.550781 122.148438 192.058594 121.519531 192.078125 C 119.980469 192.128906 118.421875 192.214844 116.828125 192.324219 C 116.140625 192.398438 115.726562 192.917969 115.773438 193.542969 C 115.816406 194.171875 116.363281 194.644531 116.992188 194.601562 C 118.558594 194.488281 120.09375 194.40625 121.59375 194.355469 C 121.644531 194.355469 121.691406 194.351562 121.742188 194.34375 Z M 112.453125 194.996094 C 113.046875 194.898438 113.464844 194.355469 113.402344 193.75 C 113.332031 193.125 112.773438 192.671875 112.148438 192.738281 C 110.617188 192.902344 109.070312 193.09375 107.488281 193.3125 C 106.867188 193.460938 106.425781 193.980469 106.515625 194.601562 C 106.605469 195.222656 107.179688 195.660156 107.800781 195.574219 C 109.359375 195.355469 110.886719 195.167969 112.390625 195.003906 C 112.414062 195.003906 112.429688 195 112.453125 194.996094 Z M 99.414062 196.9375 C 100.359375 196.785156 101.308594 196.621094 102.277344 196.449219 L 103.238281 196.28125 C 103.859375 196.175781 104.277344 195.585938 104.171875 194.964844 C 104.066406 194.347656 103.484375 193.929688 102.863281 194.03125 L 102.855469 194.035156 L 101.882812 194.203125 C 100.925781 194.371094 99.984375 194.535156 99.046875 194.6875 L 98.28125 194.808594 C 97.546875 194.820312 97.238281 195.484375 97.332031 196.109375 C 97.425781 196.730469 98.007812 197.160156 98.632812 197.0625 Z M 94.027344 197.734375 C 94.632812 197.636719 95.054688 197.074219 94.972656 196.460938 C 94.890625 195.835938 94.320312 195.398438 93.695312 195.480469 C 92.125 195.691406 90.597656 195.871094 89.101562 196.023438 C 88.546875 196.015625 88.019531 196.648438 88.085938 197.273438 C 88.152344 197.902344 88.710938 198.355469 89.335938 198.292969 C 90.851562 198.136719 92.402344 197.953125 93.992188 197.742188 L 94.027344 197.738281 Z M 84.769531 198.6875 C 85.34375 198.59375 85.765625 198.074219 85.722656 197.480469 C 85.679688 196.851562 85.132812 196.378906 84.503906 196.425781 C 82.925781 196.535156 81.390625 196.613281 79.898438 196.664062 C 79.296875 196.664062 78.773438 197.210938 78.796875 197.839844 C 78.816406 198.46875 79.34375 198.960938 79.972656 198.941406 C 81.492188 198.894531 83.054688 198.808594 84.667969 198.699219 C 84.699219 198.695312 84.734375 198.691406 84.769531 198.6875 Z M 75.464844 198.980469 C 76 198.894531 76.414062 198.429688 76.417969 197.867188 C 76.425781 197.238281 75.921875 196.722656 75.292969 196.71875 C 73.699219 196.699219 72.167969 196.644531 70.703125 196.550781 C 70.074219 196.507812 69.535156 196.988281 69.492188 197.617188 C 69.453125 198.246094 69.929688 198.785156 70.558594 198.828125 C 72.0625 198.921875 73.636719 198.976562 75.265625 198.996094 C 75.335938 198.996094 75.402344 198.992188 75.464844 198.980469 Z M 66.175781 198.386719 C 66.660156 198.308594 67.058594 197.917969 67.125 197.402344 C 67.199219 196.78125 66.757812 196.210938 66.132812 196.132812 C 64.546875 195.9375 63.046875 195.691406 61.617188 195.40625 C 60.992188 195.269531 60.402344 195.679688 60.273438 196.300781 C 60.152344 196.917969 60.550781 197.515625 61.167969 197.640625 C 62.65625 197.9375 64.210938 198.191406 65.851562 198.394531 C 65.960938 198.40625 66.070312 198.40625 66.175781 198.386719 Z M 57.0625 196.523438 C 57.480469 196.457031 57.839844 196.160156 57.96875 195.726562 C 58.152344 195.125 57.808594 194.488281 57.207031 194.308594 C 55.707031 193.859375 54.277344 193.339844 52.957031 192.769531 C 52.394531 192.519531 51.710938 192.78125 51.460938 193.359375 C 51.210938 193.9375 51.476562 194.609375 52.054688 194.859375 C 53.453125 195.464844 54.96875 196.015625 56.550781 196.492188 C 56.722656 196.542969 56.894531 196.550781 57.0625 196.523438 Z M 48.570312 192.789062 C 48.882812 192.738281 49.171875 192.558594 49.355469 192.265625 C 49.6875 191.730469 49.523438 191.03125 48.992188 190.699219 C 47.683594 189.886719 46.5 188.984375 45.460938 188.019531 C 45 187.589844 44.28125 187.613281 43.851562 188.082031 C 43.421875 188.539062 43.449219 189.261719 43.910156 189.691406 C 45.050781 190.753906 46.359375 191.742188 47.78125 192.632812 C 48.027344 192.78125 48.304688 192.832031 48.570312 192.789062 Z M 41.835938 186.460938 C 41.996094 186.4375 42.152344 186.378906 42.292969 186.28125 C 42.8125 185.925781 42.949219 185.21875 42.59375 184.699219 C 41.769531 183.488281 41.105469 182.183594 40.613281 180.820312 C 40.402344 180.230469 39.785156 179.917969 39.15625 180.136719 C 38.5625 180.351562 38.253906 181.003906 38.46875 181.59375 C 39.027344 183.136719 39.78125 184.613281 40.710938 185.980469 C 40.96875 186.355469 41.414062 186.53125 41.835938 186.460938 Z M 38.683594 177.808594 C 39.277344 177.710938 39.699219 177.164062 39.636719 176.558594 C 39.480469 175.132812 39.488281 173.648438 39.648438 172.152344 C 39.714844 171.53125 39.261719 170.96875 38.636719 170.898438 C 37.992188 170.835938 37.449219 171.285156 37.378906 171.910156 C 37.203125 173.566406 37.199219 175.210938 37.367188 176.804688 C 37.4375 177.429688 37.996094 177.882812 38.621094 177.816406 C 38.644531 177.8125 38.664062 177.8125 38.683594 177.808594 Z M 39.632812 168.601562 C 40.050781 168.535156 40.414062 168.238281 40.542969 167.808594 C 40.960938 166.40625 41.515625 165.003906 42.175781 163.644531 C 42.453125 163.078125 42.21875 162.398438 41.652344 162.121094 C 41.089844 161.84375 40.40625 162.078125 40.128906 162.648438 C 39.414062 164.117188 38.816406 165.632812 38.359375 167.148438 C 38.179688 167.75 38.519531 168.386719 39.121094 168.566406 C 39.292969 168.621094 39.464844 168.628906 39.632812 168.601562 Z M 43.65625 160.242188 C 43.953125 160.191406 44.234375 160.023438 44.414062 159.753906 C 45.242188 158.53125 46.171875 157.339844 47.183594 156.207031 C 47.605469 155.738281 47.5625 155.015625 47.09375 154.597656 C 46.613281 154.179688 45.894531 154.222656 45.484375 154.6875 C 44.40625 155.898438 43.410156 157.171875 42.53125 158.476562 C 42.175781 159 42.316406 159.707031 42.832031 160.0625 C 43.085938 160.230469 43.378906 160.285156 43.65625 160.242188 Z M 43.65625 160.242188 " fill-opacity="1" fill-rule="nonzero"/></g></g></g><g clip-path="url(#a03ca9e0dc)"><g clip-path="url(#20032b8e1c)"><g clip-path="url(#9e888dc382)"><path fill="#facc16" d="M 50.070312 153.132812 C 50.269531 153.097656 50.457031 153.015625 50.625 152.875 C 51.183594 152.402344 51.753906 151.953125 52.34375 151.519531 C 52.851562 151.148438 52.960938 150.433594 52.585938 149.925781 C 52.214844 149.417969 51.503906 149.304688 50.996094 149.679688 C 50.359375 150.144531 49.75 150.632812 49.148438 151.136719 C 48.671875 151.542969 48.613281 152.261719 49.015625 152.742188 C 49.28125 153.058594 49.6875 153.195312 50.070312 153.132812 Z M 50.070312 153.132812 " fill-opacity="1" fill-rule="nonzero"/></g></g></g><g clip-path="url(#ac8e06b38c)"><g clip-path="url(#b01075e73c)"><g clip-path="url(#0f5cb2036f)"><path fill="#facc16" d="M 54.316406 121.238281 C 56.855469 119.679688 60.621094 121.347656 62.871094 125.035156 C 64.226562 127.25 64.574219 129.554688 64.167969 131.429688 C 65.832031 130.640625 67.433594 130.269531 68.808594 130.425781 C 69.984375 129.207031 72.421875 126.136719 72.058594 123.859375 C 71.910156 122.929688 71.304688 122.203125 70.179688 121.644531 C 69.734375 121.40625 69.589844 120.921875 69.800781 120.503906 C 70.011719 120.082031 70.523438 119.914062 70.941406 120.121094 C 72.554688 120.941406 73.5 122.097656 73.742188 123.597656 C 74.1875 126.414062 71.839844 129.5625 70.570312 131.027344 C 70.804688 131.164062 71.054688 131.273438 71.257812 131.457031 C 71.460938 131.640625 71.597656 131.875 71.757812 132.09375 C 73.078125 130.679688 75.960938 128.007812 78.8125 128.152344 C 80.316406 128.226562 81.574219 129.046875 82.554688 130.566406 C 82.808594 130.957031 82.695312 131.484375 82.296875 131.738281 C 81.90625 131.992188 81.417969 131.902344 81.125 131.484375 C 80.441406 130.421875 79.664062 129.898438 78.722656 129.851562 C 76.421875 129.730469 73.632812 132.484375 72.542969 133.78125 C 72.839844 135.132812 72.644531 136.765625 72.039062 138.5 C 73.859375 137.902344 76.1875 138.003906 78.53125 139.113281 C 82.4375 140.964844 84.496094 144.527344 83.214844 147.222656 C 82.578125 148.566406 81.21875 149.445312 79.394531 149.691406 C 77.792969 149.910156 75.980469 149.574219 74.261719 148.816406 C 74.855469 150.292969 75.160156 151.820312 75.011719 153.164062 C 74.835938 154.820312 74.09375 156.027344 72.917969 156.558594 C 71.484375 157.21875 69.75 156.695312 68.25 155.351562 C 67.347656 154.539062 66.527344 153.421875 65.910156 152.082031 C 65.21875 150.566406 64.921875 149.003906 65 147.617188 C 61.34375 150.253906 57.546875 150.953125 55.4375 149.054688 C 53.316406 147.148438 53.621094 143.277344 55.878906 139.347656 C 54.527344 139.578125 52.957031 139.507812 51.316406 138.960938 C 49.917969 138.488281 48.722656 137.792969 47.816406 136.980469 C 46.316406 135.628906 45.613281 133.957031 46.113281 132.457031 C 46.886719 130.175781 50.15625 129.308594 53.679688 130.308594 C 51.59375 126.699219 51.832031 122.757812 54.316406 121.238281 Z M 57.257812 140.363281 C 59.542969 146.675781 63.398438 146.433594 63.777344 146.390625 C 64.441406 145.929688 65.097656 145.410156 65.738281 144.8125 C 64.6875 144.585938 63.359375 144.074219 62.023438 142.871094 C 60.890625 141.855469 59.808594 140.183594 58.867188 137.988281 C 58.25 138.773438 57.703125 139.566406 57.257812 140.363281 Z M 59.492188 134.769531 C 59.410156 134.757812 59.328125 134.726562 59.246094 134.707031 C 59.269531 134.777344 59.332031 134.839844 59.351562 134.910156 C 59.398438 134.863281 59.445312 134.816406 59.492188 134.769531 Z M 70.121094 132.722656 C 68.203125 131 63.679688 132.78125 60.0625 136.59375 C 62.390625 142.835938 66.125 143.308594 67.210938 143.289062 C 70.714844 139.253906 72.058594 134.464844 70.121094 132.722656 Z M 69.09375 143.648438 C 69.117188 143.65625 69.132812 143.671875 69.152344 143.675781 C 69.144531 143.648438 69.148438 143.621094 69.140625 143.59375 C 69.125 143.613281 69.109375 143.632812 69.09375 143.648438 Z M 81.675781 146.488281 C 82.28125 145.222656 81.539062 143.488281 79.988281 142.09375 C 79.375 141.542969 78.636719 141.046875 77.808594 140.652344 C 74.871094 139.261719 71.675781 139.578125 70.839844 141.351562 C 70.003906 143.128906 71.789062 145.8125 74.707031 147.1875 C 76.214844 147.902344 77.796875 148.191406 79.167969 148.007812 C 80.398438 147.839844 81.292969 147.300781 81.675781 146.488281 Z M 66.90625 146.472656 C 66.4375 147.730469 66.648438 149.609375 67.457031 151.371094 C 68.757812 154.199219 70.996094 155.566406 72.214844 155.015625 C 73.027344 154.640625 73.253906 153.582031 73.320312 152.984375 C 73.449219 151.792969 73.179688 150.386719 72.554688 149.03125 C 72.058594 147.945312 71.390625 147.007812 70.636719 146.328125 C 70.449219 146.160156 70.257812 146.011719 70.066406 145.878906 C 69.570312 145.535156 68.617188 145.015625 67.800781 145.390625 C 67.402344 145.570312 67.105469 145.933594 66.90625 146.472656 Z M 56.574219 147.789062 C 57.621094 148.734375 59.464844 148.605469 61.503906 147.695312 C 60.699219 147.425781 59.824219 147.023438 58.910156 146.203125 C 57.996094 145.378906 57.121094 144.035156 56.332031 142.363281 C 55.453125 144.703125 55.4375 146.769531 56.574219 147.789062 Z M 47.722656 133 C 47.304688 134.257812 48.886719 136.355469 51.855469 137.347656 C 54.816406 138.339844 57.34375 137.625 57.769531 136.371094 C 58.1875 135.105469 56.601562 133.023438 53.640625 132.023438 C 50.683594 131.03125 48.148438 131.742188 47.722656 133 Z M 55.246094 129.691406 C 56.113281 131.113281 57.273438 132.214844 58.527344 132.816406 C 59.65625 133.351562 60.695312 133.386719 61.457031 132.917969 C 63.132812 131.898438 63.113281 128.691406 61.417969 125.917969 C 60.941406 125.136719 60.367188 124.453125 59.753906 123.902344 C 58.203125 122.507812 56.402344 121.957031 55.207031 122.691406 C 53.527344 123.710938 53.550781 126.914062 55.246094 129.691406 Z M 55.246094 129.691406 " fill-opacity="1" fill-rule="nonzero"/></g></g></g></svg>